<svg xmlns="http://www.w3.org/2000/svg" viewBox="0 0 100 100" width="50px" height="50px" baseProfile="basic">
  <path fill="#99c0d3" d="M32.58,29.988c-0.011,0.05-0.027,0.099-0.041,0.148C32.585,30.033,32.592,29.991,32.58,29.988z" />
  <path fill="#99c0d3" d="M32.536,28.695c-0.01-0.029-0.026-0.051-0.037-0.079c0.002-0.025,0.003-0.051,0.005-0.076 c0.038-0.511,0.084-1.022,0.126-1.533c0.109-1.336,0.216-2.678,0.214-4.02c-0.002-0.837-0.028-1.762-0.288-2.588 c0.032-0.164,0.047-0.334,0.039-0.507c-0.06-1.341-1.099-2.517-2.5-2.5c-1.739,0.021-3.473,0.004-5.209,0.133 c-0.336,0.025-0.672,0.112-0.986,0.246c-0.008,0.003-0.016,0.007-0.024,0.01c-0.557,0.243-1.034,0.649-1.278,1.214 c-0.155,0.319-0.249,0.674-0.249,1.061c0.001,3.961,0.051,7.923-0.008,11.884c-0.019,1.246,0.966,2.294,2.168,2.455 c1.135,0.153,2.52-0.564,2.743-1.791c0.015-0.085,0.033-0.169,0.049-0.254c0.477,0.029,1.013-0.082,1.467-0.328 c0.271,0.149,0.566,0.253,0.869,0.294c1.11,0.149,2.234-0.477,2.647-1.529c0.11-0.206,0.194-0.425,0.257-0.651 c-0.026,0.058-0.065,0.136-0.12,0.236c0.018-0.061,0.037-0.121,0.049-0.182c0.023-0.11,0.092-0.209,0.111-0.203 C32.679,29.548,32.68,29.096,32.536,28.695z" />
  <path fill="#c4dceb" d="M81.361,47.265c0.058-2.302-0.933-3.905-2.364-4.832c-0.907-2.873-4.164-4.412-7-4.107 c-3.451-6.378-12.526-8.625-17.069-14.104c-3.094-3.731-8.074-1.399-9.71,2.26c-0.734,0.396-1.413,0.92-1.983,1.55 c-2.709-0.477-6.032,0.941-7.376,3.476c-2.639-1.377-6.419-0.494-8.293,2.164c-0.758,1.075-1.425,2.225-2.018,3.429 c-1.674,0.27-3.245,1.182-4.17,2.774c-0.384,0.66-0.697,1.329-0.965,2.003c-1.859,0.809-3.264,2.558-3.228,5.265 c0.15,11.382-0.804,22.74-0.655,34.121c0.052,3.983,3.762,6.679,7.562,5.792c0.665-0.044,1.329-0.084,1.994-0.114 c1.991-0.091,3.986-0.111,5.978-0.133c5.468-0.06,10.937-0.023,16.405,0.019c8.928,0.069,17.896,0.431,26.823,0.168 c0.53-0.016,1.024-0.117,1.497-0.257c2.706-0.527,4.854-3.05,4.926-5.928C81.995,69.625,81.08,58.453,81.361,47.265z" />
  <path fill="#de333b" d="M88.16,42.46c-0.627-1.007-1.612-1.75-2.752-2.08c-0.151-0.146-0.306-0.292-0.475-0.438 c-5.192-4.494-10.953-8.505-16.232-12.969c-4.253-3.597-7.894-7.902-12.112-11.5c-2.041-1.741-4.1-2.403-6.112-1.961 c-0.416,0.028-0.84,0.154-1.254,0.422c-0.655,0.299-1.302,0.713-1.941,1.255c-0.13,0.039-0.261,0.075-0.389,0.134 c-2.899,1.325-5.602,3.257-7.916,5.509c-2.599,1.656-5.23,3.28-7.7,4.995c-3.092,2.147-5.927,4.569-8.783,6.97 c-0.73,0.544-1.46,1.089-2.202,1.628c-2.129,1.549-4.372,2.862-6.219,4.723c-0.005,0-0.011-0.002-0.016-0.001 c-0.677,0.031-1.279,0.228-1.818,0.644c-0.496,0.383-0.932,0.93-1.075,1.558c-0.036,0.266-0.071,0.531-0.107,0.797 c0.002,0.542,0.138,1.046,0.41,1.514c0.479,1.13,1.425,2.085,2.253,2.974c0.223,0.24,0.497,0.418,0.791,0.559 c0.757,1.27,2.262,1.974,3.809,0.85c10.855-7.884,21.221-16.42,32.225-24.101c4.725,4.572,10.05,8.528,15.017,12.823 c4.691,4.057,9.691,8.809,15.079,12.01c0.343,0.285,0.737,0.514,1.167,0.651c1.619,0.702,3.107-0.154,3.79-1.432 c0.15-0.156,0.29-0.313,0.422-0.471c0.628-0.465,1.296-0.962,1.689-1.657c0.239-0.423,0.376-0.904,0.409-1.39 c0.132-0.221,0.238-0.452,0.277-0.741C88.455,43.304,88.396,42.84,88.16,42.46z" />
  <path fill="#3158a7" d="M48.15,69.676c0.025-4.041,0.085-8.078-0.004-12.118c-0.016-0.729-0.355-1.245-0.823-1.562 c-0.243-0.831-1.016-1.458-1.913-1.459c-4.605-0.009-9.216-0.472-13.812,0c-1.028,0.106-1.911,0.783-1.986,1.858 c-0.035,0.152-0.058,0.313-0.059,0.49c-0.031,9.071-0.008,18.143,0.044,27.214c0,0.066,0.014,0.122,0.019,0.184 c-0.113,0.978,0.523,1.825,1.449,2.153c1.067,0.377,2.299,0.401,3.42,0.455c1.475,0.072,2.954,0.07,4.431,0.057 c1.45-0.012,2.899-0.044,4.349-0.064c0.891-0.013,1.808-0.069,2.696,0.031c1.075,0.122,2-1.006,2-2c0-0.046-0.01-0.087-0.013-0.132 c0.003-0.024,0.01-0.047,0.013-0.072C48.529,79.72,48.12,74.685,48.15,69.676z" />
  <path fill="#316db0" d="M72.013,56.766c-0.003-1.242-1.04-2.422-2.303-2.486c-0.522-0.264-1.134-0.353-1.767-0.198 c-0.073,0.018-0.148,0.033-0.222,0.048c-0.258,0.014-0.515,0.022-0.774,0.011c-0.562-0.024-1.121-0.1-1.679-0.172 c-1.568-0.202-3.13-0.339-4.713-0.269c-1.227,0.054-2.65,0.065-3.484,1.043c-0.442,0.452-0.69,1.049-0.707,1.706 c-0.053,0.312-0.09,0.629-0.121,0.954c-0.119,1.232-0.101,2.481-0.097,3.718c0.008,2.309,0.001,4.617,0.001,6.926 c0,1.308,1.15,2.561,2.5,2.5c0.034-0.001,0.065-0.011,0.098-0.013c0.196,0.048,0.4,0.08,0.616,0.07 c0.462-0.02,0.924-0.017,1.387-0.016c0.681,0.076,1.37,0.1,2.036,0.09c0.237-0.004,0.479-0.014,0.721-0.024 c1.158,0.049,2.316,0.103,3.472,0.104c1.625,0.002,3.251-0.076,4.205-1.628c0.337-0.548,0.503-1.173,0.607-1.802 c0.119-0.475,0.193-0.968,0.24-1.448c0.042-0.42,0.052-0.844,0.05-1.268c0.018-0.288,0.045-0.574,0.053-0.864 C72.197,61.421,72.019,59.094,72.013,56.766z" />
  <path fill="#316db0" d="M44.688,70.547c1.287,0,1.289-2,0-2C43.401,68.547,43.398,70.547,44.688,70.547L44.688,70.547z" />
  <path fill="#316db0" d="M45.688,69.688c0.001-0.523-0.461-1.024-1-1c-0.069,0.003-0.13,0.029-0.196,0.045 c-0.208-0.02-0.419,0.018-0.611,0.121c-0.308,0.166-0.586,0.45-0.748,0.759c-0.186,0.357-0.259,0.698-0.3,1.095 c-0.033,0.318,0.007,0.632,0.053,0.947c0.034,0.235,0.09,0.467,0.174,0.689c0.08,0.21,0.177,0.379,0.358,0.52 c0.133,0.103,0.299,0.167,0.469,0.191c0.126,0.083,0.261,0.146,0.418,0.167c0.363,0.049,0.734-0.11,0.946-0.401 c0.137-0.12,0.25-0.267,0.292-0.454C45.742,71.481,45.686,70.587,45.688,69.688z" />
  <path d="M11.024,39.662c0,0-0.024,0.147-0.072,0.436c-0.005,0.144-0.106,0.333-0.014,0.543c0.078,0.204,0.199,0.438,0.34,0.688 c0.588,1,1.46,2.449,2.858,4.233c0.053,0.038,0.098,0.1,0.134,0.17c0.225,0.368,0.557,0.749,0.988,1.028 c0.202,0.136,0.495,0.267,0.683,0.32c0.202,0.059,0.414,0.082,0.624,0.068c0.059-0.002,0.118-0.013,0.176-0.02 c0.049,0.004,0.01,0.115,0.02,0.167l-0.011,0.399c-0.008,0.264-0.015,0.534-0.023,0.808c-0.02,0.606-0.04,1.234-0.062,1.884 c-0.057,1.348-0.118,2.786-0.182,4.31c-0.167,3.058-0.352,6.458-0.554,10.165c-0.202,3.718-0.411,7.757-0.493,12.094 c-0.008,0.542-0.015,1.089-0.023,1.64c-0.007,0.546-0.022,1.09,0.032,1.768c0.127,1.291,0.693,2.623,1.627,3.63 c1.896,2.041,4.8,2.663,7.348,2.538c4.831,0.018,9.895-0.05,15.183,0.014c5.309,0.122,10.822,0.248,16.506,0.379 c5.703,0.122,11.599,0.204,17.655,0.084l1.137-0.024l0.285-0.006l0.374-0.02c0.251-0.021,0.497-0.055,0.735-0.1 c0.238-0.044,0.468-0.1,0.689-0.16l0.555-0.138c0.475-0.133,0.933-0.313,1.371-0.531c1.742-0.89,3.101-2.406,3.823-4.222 c0.358-0.886,0.537-1.953,0.544-2.839c0.014-0.781,0.028-1.564,0.042-2.349c0.018-1.569,0.018-3.144-0.001-4.722 c-0.046-4.461-0.204-8.845-0.327-13.139c-0.048-2.142-0.096-4.267-0.143-6.371c-0.009-0.907-0.018-1.811-0.027-2.709l-0.008-0.068 c0.007-0.012,0.033,0.007,0.055,0.003l0.003,0c-0.12-0.002,0.326,0.003,0.65-0.06c0.341-0.051,0.667-0.156,0.979-0.282 c0.622-0.26,1.15-0.655,1.583-1.11c0.219-0.228,0.405-0.478,0.576-0.736l0.317-0.538c0.147-0.229,0.369-0.496,0.634-0.791 c0.523-0.599,1.266-1.298,1.78-2.43c0.24-0.569,0.406-1.175,0.387-1.891c-0.015-0.705-0.264-1.416-0.608-1.952 c-0.708-1.081-1.572-1.625-2.313-2.113c-0.329-0.229-0.58-0.396-0.902-0.64l-0.942-0.726c-1.257-0.997-2.499-2.01-3.725-3.021 c-4.9-4.051-9.559-8-13.98-11.727c-2.208-1.863-4.357-3.677-6.442-5.436c-1.045-0.876-2.074-1.739-3.086-2.587 c-0.972-0.829-2.189-1.795-3.564-2.243c-1.375-0.51-2.902-0.499-4.214-0.167c-1.321,0.344-2.468,0.913-3.521,1.566 c-2.02,1.341-3.8,2.65-5.557,3.898c-1.736,1.249-3.388,2.438-4.949,3.561c-0.654,0.474-1.289,0.934-1.905,1.379 c-0.276,0.199-0.548,0.395-0.815,0.588l-0.103,0.074c-0.026,0.01-0.09,0.088-0.074,0.021l0-0.226l0.001-0.454 c-0.002-0.303,0.015-0.609-0.035-0.915c-0.037-0.334-0.073-0.663-0.108-0.985c-0.041-0.391-0.081-0.775-0.121-1.15 c-0.038-0.355-0.063-0.805-0.212-1.17c-0.273-0.752-0.832-1.353-1.497-1.648c-0.331-0.149-0.684-0.221-1.024-0.224 c-0.334,0-0.621,0.027-0.921,0.039c-1.176,0.062-2.22,0.117-3.125,0.165c-0.451,0.024-0.867,0.047-1.247,0.067 c-0.389,0.029-0.731,0.141-1.016,0.265c-1.169,0.549-1.306,1.336-1.319,1.292c0.008,0.042,0.205-0.729,1.361-1.188 c0.561-0.258,1.329-0.193,2.235-0.195c0.903,0.001,1.945,0.003,3.12,0.006c0.601,0.007,1.203-0.056,1.716,0.234 c0.521,0.264,0.945,0.772,1.132,1.384c0.105,0.314,0.102,0.61,0.125,1.001c0.021,0.373,0.042,0.753,0.063,1.141 c0.011,0.341,0.068,0.898,0.07,1.411c0.02,0.534-0.01,1.037-0.025,1.569c-0.009,0.267-0.017,0.536-0.026,0.807l-0.013,0.413 c-0.03,0.119,0.075-0.006,0.117-0.017l0.168-0.108c0.456-0.294,0.919-0.594,1.39-0.898c0.876-0.572,1.779-1.162,2.71-1.769 c1.609-1.054,3.311-2.168,5.1-3.34c1.784-1.158,3.686-2.435,5.629-3.617c1.924-1.101,4.205-1.854,6.226-1.005 c0.506,0.195,0.998,0.469,1.466,0.813c0.466,0.324,0.913,0.74,1.418,1.187c0.98,0.88,1.977,1.774,2.989,2.682 c2.03,1.823,4.122,3.702,6.272,5.633c4.315,3.858,8.871,7.925,13.713,12.103c1.213,1.043,2.446,2.092,3.719,3.141l0.981,0.786 c0.324,0.258,0.748,0.556,1.09,0.8c0.625,0.403,1.148,0.843,1.333,1.175c0.095,0.165,0.121,0.268,0.124,0.398 c0.007,0.12-0.05,0.34-0.137,0.537c-0.178,0.406-0.651,0.921-1.257,1.562c-0.302,0.328-0.639,0.7-0.96,1.179 c-0.081,0.113-0.157,0.252-0.233,0.38l-0.104,0.173c-0.067,0.092-0.134,0.185-0.214,0.261c-0.155,0.156-0.328,0.279-0.498,0.344 c-0.085,0.029-0.168,0.06-0.252,0.066c-0.098,0.013-0.079,0.046-0.644-0.094l-0.16-0.059c-0.279-0.1-0.58-0.244-0.838-0.3l-0.4-0.11 c-0.103-0.002-0.189,0.015-0.284,0.022c-0.233-0.022-0.26,0.13-0.344,0.235c-0.073,0.119-0.167,0.183-0.194,0.427 c-0.171,0.815-0.342,1.632-0.513,2.451c-0.035,0.215-0.11,0.383-0.093,0.66l-0.001,0.446l-0.003,0.793l0.002,1.592 c0.009,2.127,0.044,4.27,0.093,6.427c0.095,4.314,0.237,8.683,0.283,13.089c0.018,1.56,0.02,3.11,0.006,4.651 c-0.012,0.77-0.023,1.538-0.035,2.304c-0.01,0.661-0.099,1.137-0.303,1.687c-0.408,1.048-1.222,1.957-2.193,2.459 c-0.244,0.123-0.494,0.224-0.75,0.298l-0.193,0.047l-0.355,0.093c-0.145,0.041-0.283,0.075-0.417,0.101 c-0.134,0.026-0.263,0.045-0.389,0.056l-0.192,0.012l-0.281,0.008l-1.124,0.033c-5.984,0.172-11.842,0.169-17.533,0.144 c-5.691-0.029-11.215-0.076-16.533-0.039c-5.322,0.064-10.441,0.274-15.299,0.407c-1.17,0.063-2.18,0.031-3.186-0.256 c-0.992-0.26-1.871-0.745-2.527-1.397c-0.646-0.659-1.048-1.497-1.179-2.416c-0.051-0.432-0.066-0.993-0.077-1.545 c-0.012-0.545-0.024-1.087-0.036-1.624c-0.077-4.298-0.029-8.328,0.016-12.047c0.048-3.719,0.099-7.128,0.1-10.189 c-0.009-1.529-0.018-2.972-0.026-4.325c-0.013-0.699-0.025-1.374-0.036-2.026c-0.008-0.354-0.016-0.701-0.024-1.042l-0.012-0.499 c-0.013-0.068,0.022-0.193-0.031-0.214c-0.063-0.012-0.125-0.012-0.188-0.032c-0.326,0.043-0.66,0.05-0.954,0.017 c-0.303-0.047-0.45-0.132-0.654-0.24c-0.377-0.219-0.674-0.516-0.91-0.859c-0.054-0.081-0.117-0.153-0.185-0.199 c-1.422-1.653-2.414-3.078-3.041-4.026c-0.157-0.242-0.28-0.452-0.371-0.648c-0.102-0.2-0.013-0.385-0.017-0.527 C11.009,39.81,11.024,39.662,11.024,39.662z" />
</svg>